# xmcd
#
# Track frame offsets:
#	150
#	15371
#	34936
#	44293
#	67092
#	81427
#	96195
#	112301
#	134017
#	148593
#	172288
#	180916
#	198733
#
# Disc length: 2988 seconds
#
# Revision: 0
# Processed by: cddbd v1.4PL0 Copyright (c) Steve Scherf et al.
# Submitted via: EasyCDDAExtractor 5.0.2.1
#
DISCID=c50baa0d
DTITLE=Delta Roux - Bad wind blown
DYEAR=2000
DGENRE=Blues
TTITLE0=Bad wind blowin'
TTITLE1=Dirty shoes
TTITLE2=Eleven/Eleven
TTITLE3=Mama said
TTITLE4=I've been workin'
TTITLE5=Shufflin' shoes
TTITLE6=Can't live without it
TTITLE7=Been way too long
TTITLE8=Shake that thing
TTITLE9=Which way to my home
TTITLE10=Son's house
TTITLE11=Drop 'em in the well
TTITLE12=Walkin' spell
EXTD=
EXTT0=
EXTT1=
EXTT2=
EXTT3=
EXTT4=
EXTT5=
EXTT6=
EXTT7=
EXTT8=
EXTT9=
EXTT10=
EXTT11=
EXTT12=
PLAYORDER=
